<svg version="1" xmlns="http://www.w3.org/2000/svg" width="682.667" height="682.667" viewBox="0 0 512.000000 512.000000"><path d="M134.6 23.1c-9.6 1.4-23.6 5.5-33.4 9.7-13.9 6-25.3 13.6-37 24.7-20.7 19.6-32 38.9-39 66.3l-2.7 10.7v245l2.7 10.7c6.8 26.6 18.1 46.3 37.4 64.9 18.2 17.5 36 27.3 61.3 33.7l10.6 2.7h245l10.6-2.7c25.3-6.4 43.1-16.2 61.3-33.7 19.3-18.6 30.6-38.3 37.4-64.9l2.7-10.7v-245l-2.7-10.6c-6.4-25.3-16.2-43.1-33.7-61.3-18.4-19.1-37.8-30.3-64.4-37.4l-10.2-2.6-120-.2c-66-.1-122.6.2-125.9.7zM190 148.6c13.6 3.4 28.9 12.8 37.3 22.9 8.5 10.1 15 23.3 18.8 38.2 2.5 10.1 2.5 12.1-.3 12.7-3.2.7-33.1 3.7-33.3 3.4-.2-.2-1.2-3.9-2.4-8.2-4.9-17.9-13.7-30.8-24.9-36.3-5.1-2.5-6.7-2.8-16.2-2.8s-11.1.3-16.2 2.8c-18.6 9.1-28.8 35.5-28.8 74.2 0 31.1 6.5 53.6 19.2 66.5 5.7 5.8 10.3 8.4 18.9 10.6 12.5 3.2 27.4-1.6 36.4-11.9 5.8-6.6 11.2-17.4 12.7-25.5 1.4-7.3-.7-6.9 21.3-4.4l15 1.7.3 2.8c.5 4.2-3.4 18.3-7.3 26.6-10.9 22.9-28.9 37.5-52.8 42.7-9.6 2.1-30.8 2.2-40.7 0-4.1-.8-11.3-3.4-16-5.7-11-5.4-24.4-18.4-31.4-30.4-8.4-14.4-14.2-32.6-16.6-51.9-1.8-13.7-.8-42.2 1.9-54.1 9.6-43.3 34.9-70.5 70.2-75.5 8.8-1.2 27-.4 34.9 1.6zm175.5-.2c24.3 5.2 42.2 17.2 50.5 33.8 2.2 4.4 4 8.6 4 9.3 0 1.6.5 1.5-18.5 6-8.2 1.9-15.7 3.8-16.6 4-1.2.4-2.4-.9-4.3-4.9-5.9-12-16.3-17.6-34.1-18.3-21.9-1-35.3 6.3-38.5 21-2.3 10.3 2.7 19 14.4 24.7 3.7 1.8 16.8 5.7 33.1 9.9 29.7 7.5 39.3 10.9 49.4 17.5 10.4 6.7 17.5 16.8 21.7 31.1 2.2 7.3 2.4 24.4.5 32.5-6 25-29.2 44.1-60.3 49.6-11.2 2-33.1 2.2-44.3.5-22.1-3.5-42.4-13.8-53.1-26.9-4.5-5.5-11.7-18.9-12.9-24.3l-.6-2.5 18.8-4 18.8-4.1 2.1 5.9c4.1 11.2 11.8 18.1 24.9 22.4 9.9 3.2 26.4 4.3 37.2 2.5 13.1-2.3 24.1-9.5 27.8-18.3 2.3-5.6 1.9-14.4-.9-20.3-4.7-10-9-12.1-46.7-21.9-30.1-7.9-41.7-12.1-49.8-18-8-5.9-15-16.8-18.7-29.1-2.2-7.4-2.5-24.6-.5-32.5 6-24.1 29.5-42.8 59.2-47 8.6-1.2 28.8-.5 37.4 1.4z"/></svg>